#!OML:ASF F:\VICON\USERDATA\INSTALL\rory3\rory3.ASF
:FULLY-SPECIFIED
:DEGREES
371
root -9.78509 17.2781 8.69056 3.07997 -45.8276 -0.608396
lowerback 19.2663 1.09959 -0.428728
upperback 3.45067 1.33654 1.03733
thorax -7.08588 0.622791 1.03169
lowerneck -10.9472 -2.86237 -10.4962
upperneck 40.0212 -4.52724 5.41436
head 16.6699 -3.02723 3.46134
rclavicle -4.90998e-014 -1.92821e-014
rhumerus -31.4283 -7.10412 -79.863
rradius 41.9318
rwrist 2.68009
rhand -13.2503 10.6608
rfingers 7.12502
rthumb 12.8519 -18.9235
lclavicle -4.90998e-014 -1.92821e-014
lhumerus -21.4079 -14.3741 90.5023
lradius 53.4844
lwrist -4.09223
lhand -20.5487 32.1288
lfingers 7.12502
lthumb 5.81012 62.0291
rfemur -29.9916 -16.2085 25.0895
rtibia 46.2948
rfoot -15.9947 -1.01186
rtoes 11.6215
lfemur -30.1605 15.4707 -18.8309
ltibia 53.1181
lfoot -15.4888 -3.22355
ltoes -8.98235
372
root -9.80416 17.2231 8.71176 3.03618 -45.6793 -0.497776
lowerback 19.6861 1.05625 -0.535803
upperback 3.45444 1.25287 1.01001
thorax -7.30675 0.583776 1.07979
lowerneck -10.9889 -2.85596 -10.388
upperneck 39.8502 -4.47354 5.28974
head 16.5726 -2.99606 3.38904
rclavicle 7.60351e-014 -1.21259e-014
rhumerus -31.3943 -6.73521 -79.8892
rradius 42.6218
rwrist 2.28987
rhand -13.3053 10.6042
rfingers 7.12502
rthumb 12.7989 -18.9835
lclavicle 7.60351e-014 -1.21259e-014
lhumerus -21.1206 -14.8602 90.7927
lradius 53.4726
lwrist -4.24973
lhand -20.6587 32.2229
lfingers 7.12502
lthumb 5.7039 62.1262
rfemur -30.5635 -16.5038 25.0346
rtibia 47.4299
rfoot -16.4857 -1.10206
rtoes 10.2583
lfemur -30.5455 15.7403 -18.9469
ltibia 52.6369
lfoot -15.9562 -3.40246
ltoes -8.1691
373
root -9.82065 17.1644 8.72384 3.1581 -45.362 -0.377768
lowerback 19.9643 0.959042 -0.70713
upperback 3.43574 1.08861 1.00704
thorax -7.47529 0.50896 1.21394
lowerneck -11.2351 -2.86372 -10.2399
upperneck 39.7458 -4.42447 5.14695
head 16.5621 -2.96214 3.30192
rclavicle 1.77912e-014 -3.47873e-014
rhumerus -31.2965 -6.28814 -79.9154
rradius 43.3562
rwrist 1.94226
rhand -13.5499 10.2009
rfingers 7.12502
rthumb 12.5631 -19.4014
lclavicle 1.77912e-014 -3.47873e-014
lhumerus -20.7791 -15.4251 91.0471
lradius 53.4637
lwrist -4.27812
lhand -20.7868 32.4245
lfingers 7.12502
lthumb 5.58015 62.331
rfemur -31.4054 -16.9054 25.065
rtibia 48.6307
rfoot -16.9787 -1.16873
rtoes 10.123
lfemur -31.1875 15.8785 -19.0996
ltibia 52.243
lfoot -16.3655 -3.7294
ltoes -6.85987
374
root -9.83707 17.1096 8.74602 3.19666 -45.3105 -0.334594
lowerback 20.2358 0.910174 -0.804208
upperback 3.50069 0.999167 1.00573
thorax -7.5491 0.466707 1.28966
lowerneck -11.4506 -2.86268 -10.2667
upperneck 39.5922 -4.36679 5.13993
head 16.5273 -2.93272 3.30806
rclavicle -5.1684e-015 1.74931e-014
rhumerus -31.1252 -5.99129 -79.8694
rradius 43.9843
rwrist 1.76014
rhand -13.7387 10.2415
rfingers 7.12502
rthumb 12.3811 -19.3719
lclavicle -5.1684e-015 1.74931e-014
lhumerus -20.3698 -15.966 91.3094
lradius 53.3741
lwrist -4.33088
lhand -20.9193 32.6781
lfingers 7.12502
lthumb 5.45225 62.588
rfemur -32.0403 -17.2228 25.0579
rtibia 49.8619
rfoot -17.6262 -0.984688
rtoes 10.9306
lfemur -31.5854 16.1947 -19.1591
ltibia 51.9029
lfoot -16.852 -4.18075
ltoes -8.70028
375
root -9.8538 17.0487 8.76927 3.15251 -45.2561 -0.266831
lowerback 20.5793 0.84462 -0.926259
upperback 3.5812 0.878936 0.984232
thorax -7.64278 0.409762 1.36632
lowerneck -11.5804 -2.82753 -10.274
upperneck 39.3546 -4.29533 5.2009
head 16.4246 -2.8848 3.34159
rclavicle -4.17448e-015 7.55382e-015
rhumerus -30.8057 -5.76551 -79.8693
rradius 44.38
rwrist 1.48863
rhand -13.6528 10.5337
rfingers 7.12502
rthumb 12.4638 -19.0746
lclavicle -4.17448e-015 7.55382e-015
lhumerus -19.8795 -16.3943 91.4898
lradius 53.2162
lwrist -4.46731
lhand -21.2813 32.5304
lfingers 7.12502
lthumb 5.10274 62.449
rfemur -32.6168 -17.4887 24.9877
rtibia 51.1559
rfoot -18.2726 -0.93718
rtoes 11.012
lfemur -31.9103 16.5201 -19.2256
ltibia 51.6461
lfoot -17.2456 -4.7528
ltoes -11.0679
376
root -9.86834 16.9761 8.78855 3.12391 -45.0594 -0.173373
lowerback 20.9392 0.777227 -1.02732
upperback 3.64064 0.757834 0.927308
thorax -7.76647 0.352295 1.39367
lowerneck -11.6404 -2.82602 -10.1247
upperneck 39.047 -4.30329 5.21308
head 16.2703 -2.85085 3.30969
rclavicle -3.98563e-014 8.15017e-015
rhumerus -30.5309 -5.62206 -79.8782
rradius 44.8016
rwrist 1.21523
rhand -13.8065 10.5288
rfingers 7.12502
rthumb 12.3157 -19.0885
lclavicle -3.98563e-014 8.15017e-015
lhumerus -19.4096 -17.032 91.6643
lradius 53.073
lwrist -4.20308
lhand -21.5714 32.9574
lfingers 7.12502
lthumb 4.82265 62.8825
rfemur -33.33 -17.8946 24.9759
rtibia 52.5036
rfoot -18.8774 -1.14792
rtoes 8.86824
lfemur -32.336 16.6548 -19.2948
ltibia 51.5101
lfoot -17.5875 -5.65996
ltoes -9.36031
377
root -9.88296 16.8957 8.80403 3.33101 -44.8436 -0.276658
lowerback 21.1822 0.716053 -1.00304
upperback 3.71006 0.676468 0.906997
thorax -7.81667 0.310969 1.37939
lowerneck -11.8363 -2.85908 -9.98813
upperneck 38.8368 -4.35009 5.22675
head 16.2079 -2.83569 3.27658
rclavicle 3.50855e-014 2.06736e-014
rhumerus -30.2165 -5.58112 -79.8273
rradius 45.1329
rwrist 0.868313
rhand -14.2668 11.0507
rfingers 7.12502
rthumb 11.8719 -18.5928
lclavicle 3.50855e-014 2.06736e-014
lhumerus -18.8992 -17.6903 91.8511
lradius 53.0256
lwrist -3.76741
lhand -21.5252 34.189
lfingers 7.12502
lthumb 4.86728 64.1131
rfemur -34.2064 -18.2886 25.1982
rtibia 53.8971
rfoot -19.5025 -1.47474
rtoes 6.24592
lfemur -32.9903 16.891 -19.2626
ltibia 51.6035
lfoot -18.0131 -6.50699
ltoes -6.3389
378
root -9.89635 16.8152 8.82179 3.4184 -44.668 -0.182493
lowerback 21.3639 0.664686 -1.16892
upperback 3.74501 0.567686 0.889691
thorax -7.87286 0.262256 1.48518
lowerneck -11.9083 -2.86212 -9.89798
upperneck 38.6303 -4.33839 5.1937
head 16.1114 -2.81242 3.24153
rclavicle -3.95085e-014 3.20043e-014
rhumerus -29.9504 -5.47251 -79.6934
rradius 45.3414
rwrist 0.395363
rhand -14.6783 12.3545
rfingers 7.12502
rthumb 11.475 -17.3115
lclavicle -3.95085e-014 3.20043e-014
lhumerus -18.4662 -18.0423 92.1139
lradius 52.9401
lwrist -3.51432
lhand -21.4386 34.6347
lfingers 7.12502
lthumb 4.95085 64.5569
rfemur -35.1302 -18.7063 25.2524
rtibia 55.3387
rfoot -20.0973 -1.6548
rtoes 4.52622
lfemur -33.6972 17.2948 -19.4532
ltibia 52.0115
lfoot -18.6578 -6.73898
ltoes -6.62835
379
root -9.90718 16.7331 8.83931 3.43798 -44.4908 -0.11294
lowerback 21.6295 0.611739 -1.32595
upperback 3.84121 0.453225 0.852958
thorax -7.90519 0.208878 1.56689
lowerneck -12.0521 -2.85975 -9.7291
upperneck 38.38 -4.36018 5.24027
head 16.0127 -2.77885 3.22056
rclavicle 2.03754e-015 -8.54774e-015
rhumerus -29.5651 -5.48805 -79.5748
rradius 45.4611
rwrist -0.00319172
rhand -14.6416 12.9137
rfingers 7.12502
rthumb 11.5104 -16.7503
lclavicle 2.03754e-015 -8.54774e-015
lhumerus -17.8037 -18.5221 92.2442
lradius 52.6181
lwrist -3.20144
lhand -21.6402 34.6265
lfingers 7.12502
lthumb 4.75622 64.5531
rfemur -35.9738 -19.1599 25.259
rtibia 56.8383
rfoot -20.6608 -1.63553
rtoes 3.61848
lfemur -34.3365 17.687 -19.5869
ltibia 52.8001
lfoot -19.3894 -6.4627
ltoes -9.63366
380
root -9.9174 16.6405 8.85404 3.59866 -44.2664 -0.275177
lowerback 21.9286 0.564466 -1.25144
upperback 3.97725 0.395814 0.807426
thorax -7.91127 0.175856 1.49101
lowerneck -12.2601 -2.91023 -9.55926
upperneck 38.1206 -4.5007 5.41277
head 15.9425 -2.77648 3.23433
rclavicle -7.07176e-014 -1.05356e-014
rhumerus -29.0012 -5.7545 -79.4812
rradius 45.307
rwrist -0.344959
rhand -14.9002 12.4942
rfingers 7.12502
rthumb 11.261 -17.1835
lclavicle -7.07176e-014 -1.05356e-014
lhumerus -16.9594 -19.3604 92.274
lradius 52.0976
lwrist -2.59026
lhand -21.5787 34.9787
lfingers 7.12502
lthumb 4.81561 64.904
rfemur -36.8004 -19.5764 25.4318
rtibia 58.3748
rfoot -21.2343 -1.54031
rtoes 3.45518
lfemur -35.0002 18.1383 -19.5258
ltibia 53.9303
lfoot -20.0426 -6.48581
ltoes -10.935
